# Created by Kenney (www.kenney.nl)

mtllib fence.mtl

v 8 7 -0.5
v 8 8 -0.5
v 8 7 0.5
v 8 8 0.5
v 9 7 -0.5
v 9 7 0.5
v 7 7 0.5
v 7 7 -0.5
v 3 7 -0.5
v 3 8 -0.5
v 3 7 0.5
v 3 8 0.5
v 4 7 -0.5
v 4 7 0.5
v 2 7 0.5
v 2 7 -0.5
v -2 7 -0.5
v -2 8 -0.5
v -2 7 0.5
v -2 8 0.5
v -1 7 -0.5
v -1 7 0.5
v -3 7 0.5
v -3 7 -0.5
v -7 7 -0.5
v -7 8 -0.5
v -7 7 0.5
v -7 8 0.5
v -6 7 -0.5
v -6 7 0.5
v -8 7 0.5
v -8 7 -0.5
v 9 -11 0.5
v 9 -11 -0.5
v 7 -11 0.5
v 7 -11 -0.5
v 4 -11 0.5
v 4 -11 -0.5
v 2 -11 0.5
v 2 -11 -0.5
v -1 -11 0.5
v -1 -11 -0.5
v -3 -11 0.5
v -3 -11 -0.5
v -6 -11 0.5
v -6 -11 -0.5
v -8 -11 0.5
v -8 -11 -0.5
v 12 -2 0.25
v 12 -2 -0.25
v 9 -2 0.25
v 9 -2 -0.25
v 9 2 -0.25
v 9 2 0.25
v 12 2 -0.25
v 12 2 0.25
v 7 -2 0.25
v 7 -2 -0.25
v 4 -2 0.25
v 4 -2 -0.25
v 4 2 -0.25
v 4 2 0.25
v 7 2 -0.25
v 7 2 0.25
v 2 -2 0.25
v 2 -2 -0.25
v -1 -2 0.25
v -1 -2 -0.25
v -1 2 -0.25
v -1 2 0.25
v 2 2 -0.25
v 2 2 0.25
v -3 -2 0.25
v -3 -2 -0.25
v -6 -2 0.25
v -6 -2 -0.25
v -6 2 -0.25
v -6 2 0.25
v -3 2 -0.25
v -3 2 0.25
v -8 -2 0.25
v -8 -2 -0.25
v -11 -2 0.25
v -11 -2 -0.25
v -11 2 -0.25
v -11 2 0.25
v -8 2 -0.25
v -8 2 0.25
v 12 -9 0.25
v 12 -9 -0.25
v 9 -9 0.25
v 9 -9 -0.25
v 9 -5 -0.25
v 9 -5 0.25
v 12 -5 -0.25
v 12 -5 0.25
v 7 -9 0.25
v 7 -9 -0.25
v 4 -9 0.25
v 4 -9 -0.25
v 4 -5 -0.25
v 4 -5 0.25
v 7 -5 -0.25
v 7 -5 0.25
v 2 -9 0.25
v 2 -9 -0.25
v -1 -9 0.25
v -1 -9 -0.25
v -1 -5 -0.25
v -1 -5 0.25
v 2 -5 -0.25
v 2 -5 0.25
v -3 -9 0.25
v -3 -9 -0.25
v -6 -9 0.25
v -6 -9 -0.25
v -6 -5 -0.25
v -6 -5 0.25
v -3 -5 -0.25
v -3 -5 0.25
v -8 -9 0.25
v -8 -9 -0.25
v -11 -9 0.25
v -11 -9 -0.25
v -11 -5 -0.25
v -11 -5 0.25
v -8 -5 -0.25
v -8 -5 0.25

vn -1 0 0
vn 0 0 -1
vn 0.7071068 0.7071068 0
vn 0 0 1
vn 0 -1 0
vn 1 0 0
vn -0.7071068 0.7071068 0
vn 0 1 0

vt 0.3125 0.0625
vt 0.6875 0.0625

usemtl fence

f 3/1/1 2/1/1 1/1/1
f 2/1/1 3/1/1 4/1/1
f 2/1/2 5/1/2 1/1/2
f 2/1/3 6/1/3 5/1/3
f 6/1/3 2/1/3 4/1/3
f 4/1/4 3/1/4 6/1/4
f 3/1/5 5/1/5 6/1/5
f 5/1/5 3/1/5 1/1/5
f 4/1/4 7/1/4 3/1/4
f 2/1/2 1/1/2 8/1/2
f 7/1/5 1/1/5 3/1/5
f 1/1/5 7/1/5 8/1/5
f 4/1/6 1/1/6 2/1/6
f 1/1/6 4/1/6 3/1/6
f 7/1/7 2/1/7 8/1/7
f 2/1/7 7/1/7 4/1/7
f 11/1/1 10/1/1 9/1/1
f 10/1/1 11/1/1 12/1/1
f 10/1/2 13/1/2 9/1/2
f 10/1/3 14/1/3 13/1/3
f 14/1/3 10/1/3 12/1/3
f 12/1/4 11/1/4 14/1/4
f 11/1/5 13/1/5 14/1/5
f 13/1/5 11/1/5 9/1/5
f 12/1/4 15/1/4 11/1/4
f 10/1/2 9/1/2 16/1/2
f 15/1/5 9/1/5 11/1/5
f 9/1/5 15/1/5 16/1/5
f 12/1/6 9/1/6 10/1/6
f 9/1/6 12/1/6 11/1/6
f 15/1/7 10/1/7 16/1/7
f 10/1/7 15/1/7 12/1/7
f 19/1/1 18/1/1 17/1/1
f 18/1/1 19/1/1 20/1/1
f 18/1/2 21/1/2 17/1/2
f 18/1/3 22/1/3 21/1/3
f 22/1/3 18/1/3 20/1/3
f 20/1/4 19/1/4 22/1/4
f 19/1/5 21/1/5 22/1/5
f 21/1/5 19/1/5 17/1/5
f 20/1/4 23/1/4 19/1/4
f 18/1/2 17/1/2 24/1/2
f 23/1/5 17/1/5 19/1/5
f 17/1/5 23/1/5 24/1/5
f 20/1/6 17/1/6 18/1/6
f 17/1/6 20/1/6 19/1/6
f 23/1/7 18/1/7 24/1/7
f 18/1/7 23/1/7 20/1/7
f 27/1/1 26/1/1 25/1/1
f 26/1/1 27/1/1 28/1/1
f 26/1/2 29/1/2 25/1/2
f 26/1/3 30/1/3 29/1/3
f 30/1/3 26/1/3 28/1/3
f 28/1/4 27/1/4 30/1/4
f 27/1/5 29/1/5 30/1/5
f 29/1/5 27/1/5 25/1/5
f 28/1/4 31/1/4 27/1/4
f 26/1/2 25/1/2 32/1/2
f 31/1/5 25/1/5 27/1/5
f 25/1/5 31/1/5 32/1/5
f 28/1/6 25/1/6 26/1/6
f 25/1/6 28/1/6 27/1/6
f 31/1/7 26/1/7 32/1/7
f 26/1/7 31/1/7 28/1/7
f 35/1/5 34/1/5 33/1/5
f 34/1/5 35/1/5 36/1/5
f 35/1/1 8/1/1 36/1/1
f 8/1/1 35/1/1 7/1/1
f 8/1/2 34/1/2 36/1/2
f 34/1/2 8/1/2 5/1/2
f 6/1/4 35/1/4 33/1/4
f 35/1/4 6/1/4 7/1/4
f 6/1/6 34/1/6 5/1/6
f 34/1/6 6/1/6 33/1/6
f 8/1/8 6/1/8 5/1/8
f 6/1/8 8/1/8 7/1/8
f 39/1/5 38/1/5 37/1/5
f 38/1/5 39/1/5 40/1/5
f 39/1/1 16/1/1 40/1/1
f 16/1/1 39/1/1 15/1/1
f 16/1/2 38/1/2 40/1/2
f 38/1/2 16/1/2 13/1/2
f 14/1/4 39/1/4 37/1/4
f 39/1/4 14/1/4 15/1/4
f 14/1/6 38/1/6 13/1/6
f 38/1/6 14/1/6 37/1/6
f 16/1/8 14/1/8 13/1/8
f 14/1/8 16/1/8 15/1/8
f 43/1/5 42/1/5 41/1/5
f 42/1/5 43/1/5 44/1/5
f 43/1/1 24/1/1 44/1/1
f 24/1/1 43/1/1 23/1/1
f 24/1/2 42/1/2 44/1/2
f 42/1/2 24/1/2 21/1/2
f 22/1/4 43/1/4 41/1/4
f 43/1/4 22/1/4 23/1/4
f 22/1/6 42/1/6 21/1/6
f 42/1/6 22/1/6 41/1/6
f 24/1/8 22/1/8 21/1/8
f 22/1/8 24/1/8 23/1/8
f 47/1/5 46/1/5 45/1/5
f 46/1/5 47/1/5 48/1/5
f 47/1/1 32/1/1 48/1/1
f 32/1/1 47/1/1 31/1/1
f 32/1/2 46/1/2 48/1/2
f 46/1/2 32/1/2 29/1/2
f 30/1/4 47/1/4 45/1/4
f 47/1/4 30/1/4 31/1/4
f 30/1/6 46/1/6 29/1/6
f 46/1/6 30/1/6 45/1/6
f 32/1/8 30/1/8 29/1/8
f 30/1/8 32/1/8 31/1/8
f 51/2/5 50/2/5 49/2/5
f 50/2/5 51/2/5 52/2/5
f 51/2/1 53/2/1 52/2/1
f 53/2/1 51/2/1 54/2/1
f 53/2/2 50/2/2 52/2/2
f 50/2/2 53/2/2 55/2/2
f 56/2/4 51/2/4 49/2/4
f 51/2/4 56/2/4 54/2/4
f 56/2/6 50/2/6 55/2/6
f 50/2/6 56/2/6 49/2/6
f 53/2/8 56/2/8 55/2/8
f 56/2/8 53/2/8 54/2/8
f 59/2/5 58/2/5 57/2/5
f 58/2/5 59/2/5 60/2/5
f 59/2/1 61/2/1 60/2/1
f 61/2/1 59/2/1 62/2/1
f 61/2/2 58/2/2 60/2/2
f 58/2/2 61/2/2 63/2/2
f 64/2/4 59/2/4 57/2/4
f 59/2/4 64/2/4 62/2/4
f 64/2/6 58/2/6 63/2/6
f 58/2/6 64/2/6 57/2/6
f 61/2/8 64/2/8 63/2/8
f 64/2/8 61/2/8 62/2/8
f 67/2/5 66/2/5 65/2/5
f 66/2/5 67/2/5 68/2/5
f 67/2/1 69/2/1 68/2/1
f 69/2/1 67/2/1 70/2/1
f 69/2/2 66/2/2 68/2/2
f 66/2/2 69/2/2 71/2/2
f 72/2/4 67/2/4 65/2/4
f 67/2/4 72/2/4 70/2/4
f 72/2/6 66/2/6 71/2/6
f 66/2/6 72/2/6 65/2/6
f 69/2/8 72/2/8 71/2/8
f 72/2/8 69/2/8 70/2/8
f 75/2/5 74/2/5 73/2/5
f 74/2/5 75/2/5 76/2/5
f 75/2/1 77/2/1 76/2/1
f 77/2/1 75/2/1 78/2/1
f 77/2/2 74/2/2 76/2/2
f 74/2/2 77/2/2 79/2/2
f 80/2/4 75/2/4 73/2/4
f 75/2/4 80/2/4 78/2/4
f 80/2/6 74/2/6 79/2/6
f 74/2/6 80/2/6 73/2/6
f 77/2/8 80/2/8 79/2/8
f 80/2/8 77/2/8 78/2/8
f 83/2/5 82/2/5 81/2/5
f 82/2/5 83/2/5 84/2/5
f 83/2/1 85/2/1 84/2/1
f 85/2/1 83/2/1 86/2/1
f 85/2/2 82/2/2 84/2/2
f 82/2/2 85/2/2 87/2/2
f 88/2/4 83/2/4 81/2/4
f 83/2/4 88/2/4 86/2/4
f 88/2/6 82/2/6 87/2/6
f 82/2/6 88/2/6 81/2/6
f 85/2/8 88/2/8 87/2/8
f 88/2/8 85/2/8 86/2/8
f 91/2/5 90/2/5 89/2/5
f 90/2/5 91/2/5 92/2/5
f 91/2/1 93/2/1 92/2/1
f 93/2/1 91/2/1 94/2/1
f 93/2/2 90/2/2 92/2/2
f 90/2/2 93/2/2 95/2/2
f 96/2/4 91/2/4 89/2/4
f 91/2/4 96/2/4 94/2/4
f 96/2/6 90/2/6 95/2/6
f 90/2/6 96/2/6 89/2/6
f 93/2/8 96/2/8 95/2/8
f 96/2/8 93/2/8 94/2/8
f 99/2/5 98/2/5 97/2/5
f 98/2/5 99/2/5 100/2/5
f 99/2/1 101/2/1 100/2/1
f 101/2/1 99/2/1 102/2/1
f 101/2/2 98/2/2 100/2/2
f 98/2/2 101/2/2 103/2/2
f 104/2/4 99/2/4 97/2/4
f 99/2/4 104/2/4 102/2/4
f 104/2/6 98/2/6 103/2/6
f 98/2/6 104/2/6 97/2/6
f 101/2/8 104/2/8 103/2/8
f 104/2/8 101/2/8 102/2/8
f 107/2/5 106/2/5 105/2/5
f 106/2/5 107/2/5 108/2/5
f 107/2/1 109/2/1 108/2/1
f 109/2/1 107/2/1 110/2/1
f 109/2/2 106/2/2 108/2/2
f 106/2/2 109/2/2 111/2/2
f 112/2/4 107/2/4 105/2/4
f 107/2/4 112/2/4 110/2/4
f 112/2/6 106/2/6 111/2/6
f 106/2/6 112/2/6 105/2/6
f 109/2/8 112/2/8 111/2/8
f 112/2/8 109/2/8 110/2/8
f 115/2/5 114/2/5 113/2/5
f 114/2/5 115/2/5 116/2/5
f 115/2/1 117/2/1 116/2/1
f 117/2/1 115/2/1 118/2/1
f 117/2/2 114/2/2 116/2/2
f 114/2/2 117/2/2 119/2/2
f 120/2/4 115/2/4 113/2/4
f 115/2/4 120/2/4 118/2/4
f 120/2/6 114/2/6 119/2/6
f 114/2/6 120/2/6 113/2/6
f 117/2/8 120/2/8 119/2/8
f 120/2/8 117/2/8 118/2/8
f 123/2/5 122/2/5 121/2/5
f 122/2/5 123/2/5 124/2/5
f 123/2/1 125/2/1 124/2/1
f 125/2/1 123/2/1 126/2/1
f 125/2/2 122/2/2 124/2/2
f 122/2/2 125/2/2 127/2/2
f 128/2/4 123/2/4 121/2/4
f 123/2/4 128/2/4 126/2/4
f 128/2/6 122/2/6 127/2/6
f 122/2/6 128/2/6 121/2/6
f 125/2/8 128/2/8 127/2/8
f 128/2/8 125/2/8 126/2/8

